# xmcd
#
# Track frame offsets: 
#        150
#        40557
#        79485
#        107887
#        144697
#        178117
#        227072
#        259610
#        297177
#
# Disc length: 4208 seconds
#
# Revision: 1
# Processed by: cddbd v1.5.2PL0 Copyright (c) Steve Scherf et al.
# Submitted via: ExactAudioCopyFreeDBPlugin 1.0
#
DISCID=7d106e09
DTITLE=Art Farmer - Best Of Art Famer
DYEAR=1990
DGENRE=Jazz
TTITLE0=Crawl Space
TTITLE1=Chanson
TTITLE2=Something You Got
TTITLE3=Flute Song
TTITLE4=Big Blues
TTITLE5=Pavane For A Dead Princess
TTITLE6=Blue Montreux
TTITLE7=Lotus Blossom
TTITLE8=Dulzura
EXTD=YEAR: 1990
EXTT0=
EXTT1=
EXTT2=
EXTT3=
EXTT4=
EXTT5=
EXTT6=
EXTT7=
EXTT8=
PLAYORDER=
